<!DOCTYPE svg PUBLIC "-//W3C//DTD SVG 1.1//EN" "http://www.w3.org/Graphics/SVG/1.1/DTD/svg11.dtd">
<!-- Uploaded to: SVG Repo, www.svgrepo.com, Transformed by: SVG Repo Mixer Tools -->
<svg width="256px" height="256px" viewBox="-5.28 -5.28 34.56 34.56" fill="none" xmlns="http://www.w3.org/2000/svg" transform="matrix(1, 0, 0, 1, 0, 0)rotate(0)" stroke="#fafafa">
<g id="SVGRepo_bgCarrier" stroke-width="0" transform="translate(0,0), scale(1)">
<path transform="translate(-5.28, -5.28), scale(1.08)" d="M16,25.905484479334618C18.839923426371705,26.329487709126713,21.26187630809097,29.254374042224878,24.03178379794737,28.497699538778154C26.785077003521174,27.7455636725804,28.838029402631253,24.956264792141077,29.57173150843972,22.198002103959958C30.279303700141675,19.537971609137394,28.25257668218298,17.018651127196456,27.80778260391642,14.302297161345376C27.37495017060567,11.658992867918984,29.026875322626953,8.21848626217481,26.996556662580875,6.471429410884392C24.877407333245323,4.647935184298723,21.5532610811603,6.883732941966075,18.77956761608547,6.533662040267904C16.62325769389792,6.261511794285137,14.844653304910715,4.677071222742423,12.671279914483899,4.663420482923467C9.983549433787879,4.646539117918693,6.943431903674975,4.616589006293793,4.975202063477054,6.446958207712282C2.983462055016603,8.299190855680068,2.8934517014015184,11.368227342523676,2.55893523179658,14.06746663815177C2.2301067946228605,16.72080875965482,1.7583059797574536,19.574017889040107,3.058866580492097,21.910017606217565C4.332689328203767,24.19799217403688,6.8724396204717495,25.536851307943024,9.37457383234492,26.30936435077759C11.532385251625014,26.975570606805444,13.766442924000643,25.572012314080272,16,25.905484479334618" fill="#EFB71A" strokewidth="0"/>
</g>
<g id="SVGRepo_tracerCarrier" stroke-linecap="round" stroke-linejoin="round" stroke="#000000" stroke-width="1.104"> <path d="M21 12C21 16.9706 16.9706 21 12 21C7.02944 21 3 16.9706 3 12C3 7.02944 7.02944 3 12 3C16.9706 3 21 7.02944 21 12Z" stroke="#f3f1f1" stroke-width="0.00024000000000000003" stroke-linejoin="round"/> <path d="M11 15L13.7158 12.2842V12.2842C13.8728 12.1272 13.8728 11.8728 13.7158 11.7158V11.7158L11 9" stroke="#f3f1f1" stroke-width="0.00024000000000000003" stroke-linecap="round" stroke-linejoin="round"/> </g>
<g id="SVGRepo_iconCarrier"> <path d="M21 12C21 16.9706 16.9706 21 12 21C7.02944 21 3 16.9706 3 12C3 7.02944 7.02944 3 12 3C16.9706 3 21 7.02944 21 12Z" stroke="#f3f1f1" stroke-width="2.064" stroke-linejoin="round"/> <path d="M11 15L13.7158 12.2842V12.2842C13.8728 12.1272 13.8728 11.8728 13.7158 11.7158V11.7158L11 9" stroke="#f3f1f1" stroke-width="2.064" stroke-linecap="round" stroke-linejoin="round"/> </g>
</svg>