<!DOCTYPE svg PUBLIC "-//W3C//DTD SVG 1.1//EN" "http://www.w3.org/Graphics/SVG/1.1/DTD/svg11.dtd">
<!-- Uploaded to: SVG Repo, www.svgrepo.com, Transformed by: SVG Repo Mixer Tools -->
<svg width="256px" height="256px" viewBox="-5.28 -5.28 34.56 34.56" fill="none" xmlns="http://www.w3.org/2000/svg" transform="matrix(-1, 0, 0, -1, 0, 0)rotate(0)" stroke="#fafafa">
<g id="SVGRepo_bgCarrier" stroke-width="0" transform="translate(0,0), scale(1)">
<path transform="translate(-5.28, -5.28), scale(1.08)" d="M16,30.04204862290307C19.85550258696409,29.542728529698085,21.51305761945247,25.365733820676827,24.04674836008015,22.417067684197047C26.802388195646486,19.210100970707693,31.79729763930306,16.72839884485766,31.009573279537488,12.574162845564807C30.21538998989501,8.385864272633187,24.85549413289589,7.414755410742887,20.900413646125152,5.8241862117660705C17.429960170049835,4.428513879940931,13.774899081794578,2.7638865798733825,10.348856835958484,4.265280304774295C6.806383222898592,5.817697721617097,4.9526116532364295,9.514015567318976,3.9540452458961717,13.250589434576796C2.895779168978489,17.210555780879748,2.443674023890507,21.574865531015416,4.83296292245068,24.905414902008708C7.345694261665946,28.408036868879986,11.724996812040104,30.59569758101324,16,30.04204862290307" fill="#EFB71A" strokewidth="0"/>
</g>
<g id="SVGRepo_tracerCarrier" stroke-linecap="round" stroke-linejoin="round" stroke="#000000" stroke-width="1.104"> <path d="M21 12C21 16.9706 16.9706 21 12 21C7.02944 21 3 16.9706 3 12C3 7.02944 7.02944 3 12 3C16.9706 3 21 7.02944 21 12Z" stroke="#f3f1f1" stroke-width="0.00024000000000000003" stroke-linejoin="round"/> <path d="M11 15L13.7158 12.2842V12.2842C13.8728 12.1272 13.8728 11.8728 13.7158 11.7158V11.7158L11 9" stroke="#f3f1f1" stroke-width="0.00024000000000000003" stroke-linecap="round" stroke-linejoin="round"/> </g>
<g id="SVGRepo_iconCarrier"> <path d="M21 12C21 16.9706 16.9706 21 12 21C7.02944 21 3 16.9706 3 12C3 7.02944 7.02944 3 12 3C16.9706 3 21 7.02944 21 12Z" stroke="#f3f1f1" stroke-width="2.064" stroke-linejoin="round"/> <path d="M11 15L13.7158 12.2842V12.2842C13.8728 12.1272 13.8728 11.8728 13.7158 11.7158V11.7158L11 9" stroke="#f3f1f1" stroke-width="2.064" stroke-linecap="round" stroke-linejoin="round"/> </g>
</svg>