<svg xmlns="http://www.w3.org/2000/svg" xml:space="preserve" viewBox="0 0 1500 469" class="logo-Icon"><path fill="#fff" d="M945 470H1.06V1.09h1499.755V470zm-73.358-190.162-.868 9.971c1.605.086 2.57.16 3.537.184 1.166.027 2.343-.09 3.496.032 3.914.415 4.194 2.676.628 6.97 12.516 0 24.813.165 37.094-.208 1.534-.046 4.195-2.876 4.277-4.52.674-13.413 1.176-26.852 1.126-40.28-.095-24.927-.91-49.853-.836-74.777.062-21.082-9.694-38.708-30.796-46.475-15.271-5.622-30.682-6.186-45.312 1.456-8.14 4.252-15.375 10.239-22.988 15.423v-4.069c0-26.822.013-53.644-.01-80.467-.005-6.228-1.58-7.089-7.17-4.49-16.744 7.786-33.461 15.64-50.373 23.044-3.37 1.476-4.497 3.035-4.494 6.478.063 67.64.073 135.279-.01 202.918-.006 4.613 1.863 6.074 6.272 6.032 16.158-.152 32.32-.06 48.48-.06h5.416c-2.762-4.056-5.209-7.277-7.173-10.77-.556-.988-.205-3.208.587-4.114a361 361 0 0 1 13.981-15.078c7.814-7.972 8.842-14.512 3.75-24.737-.383-.77-.3-2.05.066-2.872 1.624-3.645-.24-4.263-3.345-4.475-5.696-.389-8.758-3.965-9.014-9.677-.21-4.694-.747-9.373-1.129-13.933h-3.378c1.398-1.767 3.09-2.958 3.367-4.416 1.275-6.731 2.444-13.51 3.089-20.323.549-5.798 6.67-10.654 12.429-10.015 6.523.724 8.892 5.088 10.281 10.759l7.379-2.972c0-1.888.078-3.714-.016-5.53-.223-4.32 2.637-6.606 6.07-7.146 2.287-.36 5.377.834 7.28 2.363 3.26 2.617 1.421 12.986-2.555 14.425-4.196 1.52-3.506 3.617-2.776 7.147 1.29 6.245 1.818 12.714 1.952 19.105.076 3.597 1.035 5.427 4.6 5.218 4.657-.274 9.298-.817 14.256-1.273-.18 3.038-.257 6.457-.61 9.846-1.022 9.79-2.154 19.57-4.064 29.394-.373-1.45-1.204-2.952-1.044-4.34 1.087-9.455 2.382-18.886 3.594-28.204-5.804.323-11.073.388-16.281.982-3.995.455-5.903 4.876-3.98 8.51 1.814 3.426 3.791 6.765 5.576 10.204 5.307 10.224 8.452 20.928 7.013 32.614-.07.567.06 1.159.097 1.75 1.218-.17 2.002-.279 2.529.396M481 236.5V87.065c-.001-6.935-1.124-8.05-8.287-8.06-14.66-.018-29.32-.01-43.98-.003-6.925.003-8.728 1.79-8.73 8.658-.007 16.935-.003 33.87-.003 50.621-4.975-2.817-9.621-5.963-14.668-8.205-12.433-5.522-25.377-7.337-38.995-5.173-12.411 1.971-23.795 6.253-33.12 14.534-19.954 17.72-28.057 41.196-30.087 66.964-1.306 16.573 1.65 32.694 7.808 48.265 5.416 13.692 12.714 25.88 25.108 34.308 17.722 12.05 37.078 12.769 57.053 7.402 10.28-2.763 18.594-9.13 26.901-16.565 0 4.003-.03 7.283.007 10.563.06 5.171 1.473 6.605 6.702 6.615q23.74.045 47.479.001c5.532-.01 6.799-1.33 6.805-7.013.02-17.492.007-34.985.007-53.477m535 6c0 15.327-.048 30.655.023 45.982.03 6.696 1.943 8.507 8.547 8.514 13.661.014 27.323.004 40.985.004C1077 297 1077 297 1077 285.417V238.67l1.565-1.137c.375.926.62 1.934 1.146 2.765 10.375 16.43 20.801 32.825 31.17 49.257 2.987 4.735 6.56 7.701 12.77 7.561 15.486-.35 30.985-.083 46.479-.155 1.924-.01 3.867-.473 5.763-.897 4.352-.973 5.075-3.685 3.303-7.406-.7-1.47-1.443-2.94-2.35-4.286-15.873-23.575-31.72-47.17-47.73-70.652-2.491-3.655-2.741-6.696-.094-10.282a4055 4055 0 0 0 26.865-36.859c6.69-9.28 13.383-18.562 19.807-28.024 3.465-5.104 1.479-8.51-4.617-8.543-8.496-.044-16.996.116-25.49-.05-7.43-.143-14.864-1.003-22.278-.81-5.16.135-10.347 1.092-13.54 6.335-5.437 8.926-11.17 17.671-16.764 26.5-5.007 7.904-9.995 15.818-14.992 23.728l-1.013-.389v-4.781c0-16.494-.435-33.004.19-49.475.298-7.871-2.779-11.873-9.46-15.283-14.708-7.505-28.992-15.838-43.545-23.652-1.755-.943-4.683-1.696-6.024-.862-1.384.861-2.072 3.768-2.076 5.783-.11 48.148-.085 96.296-.085 145.445m-333.805 54.22c16.317.093 32.634.201 48.951.273 6.883.03 7.852-.983 7.853-7.976.002-31.993.105-63.987-.09-95.978-.037-6.158-.711-12.425-2.024-18.438-2.771-12.687-8.964-23.765-18.99-32.06-14.823-12.267-33.076-15.574-51.46-17.362-10.24-.996-20.725-.936-30.974.01-13.373 1.233-26.65 3.656-39.89 6.01-1.76.313-4.325 3.19-4.37 4.935-.358 13.988-.326 27.991-.124 41.985.064 4.489 3.03 6.108 7.567 4.99a8420 8420 0 0 1 41.68-10.18c10.427-2.513 19.98.391 28.66 5.79 4.45 2.77 7.258 7.453 7.95 13.054-6.4-.976-12.266-2.371-18.189-2.677-15.604-.804-31.001.786-45.503 6.983-14.333 6.126-25.144 16.085-31.281 30.745-4.64 11.085-5.965 22.403-4.045 34.322 2.136 13.26 7.686 24.522 19.092 31.737 18.56 11.74 38.326 10.908 57.736 2.545 8.576-3.695 16.194-9.609 24.256-14.52 0 3.1-.28 6.591.114 10.003.208 1.796 1.596 3.455 3.081 5.81M178.416 128c-13.993 0-27.987.013-41.98-.008-4.237-.007-6.536 1.301-6.523 6.275.14 52.143.128 104.287.017 156.43-.01 4.736 1.621 6.439 6.369 6.377 15.323-.199 30.651-.07 45.978-.076 6.637-.003 7.719-1.065 7.72-7.609.007-23.656-.262-47.316.141-70.965.15-8.746 1.443-17.542 2.997-26.174 1.62-9.003 7.885-14.283 16.526-15.248 6.32-.705 14.05 3.88 16.928 11.464 2.024 5.333 3.2 11.307 3.265 17.01.32 28.484.207 56.974.083 85.46-.02 4.497 1.58 6.183 6.102 6.13 14.658-.175 29.319-.066 43.979-.066 8.224 0 8.979-.735 8.98-8.869.005-29.986.086-59.973-.044-89.96-.045-10.41-.439-20.83-.996-31.229-.77-14.397-8.561-24.942-19.863-32.823-10.855-7.572-22.907-11.078-36.537-9.284-10.216 1.344-19.453 4.375-27.52 10.688-4.765 3.729-9.26 7.803-14.038 11.86v-13.662c-.002-3.742-1.841-5.686-5.615-5.718-1.666-.014-3.332-.003-5.969-.003m997.654 38.669c-2.026 4.637-4.257 9.196-6.04 13.924-6.4 16.98-6.435 34.613-3.81 52.14 2.328 15.55 8.123 30.024 19.516 41.413 16.902 16.897 38.364 23.14 61.426 24.784 20.577 1.466 40.511-2.91 60.255-8.042 3.462-.9 5.687-3.48 5.633-7.658-.146-11.327-.247-22.662.012-33.986.212-9.289-3.616-9.469-11.009-7.61-8.186 2.059-16.014 5.501-24.139 7.859-10.916 3.167-21.99 3.766-32.767-.59-6.99-2.825-13.512-6.47-16.317-15.232 3.658.497 6.694 1.148 9.752 1.286 17.222.775 34.241-.352 50.375-7.066 8.433-3.51 15.973-8.486 21.13-16.333 6.784-10.321 9.502-21.474 8.02-33.932-2.33-19.564-11.493-34.337-29.212-43.114-21.478-10.64-43.942-10.058-66.623-4.599-20.793 5.006-35.176 18.195-46.202 36.756m196.673 66.25c7.408 3.358 14.92 6.511 22.138 10.236 1.567.809 3.153 3.944 2.757 5.506-.37 1.458-3.378 3.192-5.201 3.165-6.226-.091-12.697.013-18.604-1.64-11.09-3.103-21.926-7.187-32.722-11.248-5.957-2.24-9.493-1.303-10.27 4.85-.84 6.647-.318 13.47-.33 20.215-.008 5.28.592 10.62-.026 15.821-.639 5.376 1.133 9.948 6.499 11.14 11.758 2.615 23.585 4.975 35.459 7.002 12.635 2.156 25.33 1.705 37.846-1.027 10.452-2.282 20.495-5.773 28.515-13.285 10.99-10.293 14.847-23.49 15.217-38.106.52-20.472-8.98-34.779-27.052-43.48-12.794-6.16-25.951-11.562-38.818-17.576-2.873-1.343-5.21-3.832-8.702-6.484 2.797-1.522 4.192-2.95 5.528-2.897 7.749.306 15.726-.042 23.164 1.75 9.585 2.31 18.767 6.339 28.058 9.8 6.083 2.267 9.43.675 9.719-5.644.584-12.75.81-25.52 1.044-38.283.077-4.197-2.408-6.834-6.355-7.657-10.368-2.162-20.793-4.052-31.179-6.128-14.907-2.979-29.768-2.659-44.45 1.103-16.305 4.179-28.751 12.914-33.582 30.078-2.767 9.829-2.833 19.66-1.544 29.781 1.605 12.604 7.402 22.446 17.822 29.204 7.767 5.038 16.233 8.999 25.07 13.804M48 193.5c0 32.14-.006 64.28.006 96.42.002 5.689 1.29 7.06 6.744 7.07 16.154.03 32.307-.038 48.46.048 3.494.019 5.723-.82 5.843-4.843.192-6.399.897-12.79.904-19.184.072-61.449.045-122.898.04-184.347 0-8.192-1.499-9.664-9.733-9.664H57.299c-7.675.001-9.298 1.584-9.298 9.087C47.999 122.89 48 157.695 48 193.5m470.866-53.527-19.717-7.796c-.053.901-.143 1.709-.143 2.516q-.008 76.748-.002 153.495c0 .997-.123 2.038.116 2.982.956 3.78 2.586 6.074 7.368 5.964 15.658-.358 31.329-.128 46.995-.137 6.05-.003 6.513-.472 6.514-6.585.007-23.166.003-46.332.003-69.498V131.89c-12.718 7.504-25.82 11.41-41.134 8.083M938 216.5c0 24.473-.012 48.946.009 73.42.004 5.688 1.342 7.058 6.933 7.07q22.974.044 45.95 0c6.224-.01 7.106-.944 7.107-7.204q.002-72.67.001-145.34v-6.66c-20.172 12.398-39.964 10.679-60 .222zM557.541 113.977c4.151-5.565 5.958-12.005 5.365-18.725-1.966-22.274-23.535-34.23-42.93-28.688-17.48 4.994-25.982 21.092-22.012 38.162 3.152 13.555 12.958 21.996 25.541 24.025 13.586 2.19 25.484-2.11 34.036-14.774m391.184-36.918c-.983.887-1.991 1.749-2.945 2.667-9.91 9.542-12.37 21.363-8.293 33.884 4.173 12.816 14.404 19.78 27.52 21.25 19.635 2.202 38.267-14.172 35.037-36.768-1.848-12.927-9.56-20.788-21.288-25.102-10.35-3.807-20.188-2.26-30.031 4.069M1125 369.575V363c-4.153 0-7.805-.204-11.412.112-1.251.11-3.088 1.277-3.454 2.366-1.325 3.945-2.037 8.09-3.174 12.104-1.011 3.569-2.28 7.065-3.892 11.992l-7.383-26.335h-14.461v49.538h10.786v-22.253c1.998 4.123 3.418 8.316 4.504 12.593.843 3.32 2.01 5.168 6.114 5.066 3.98-.1 6.43-.918 7.373-5.013.78-3.38 1.886-6.683 2.848-10.02l1.374.35v19.22H1125zm-306.028 17.128-11.238-23.499h-13.378v49.438h11.734v-27.468l13.127 27.53h13.512V363.27h-11.038v27.973c-1.423-2.016-2.03-2.877-2.72-4.54m242.621 25.428c-2.99-5.32-5.662-10.859-9.102-15.872-1.769-2.578-1.658-3.427.786-5.196 5.557-4.023 6.641-10.112 5.487-16.282-1.057-5.654-4.497-10.83-10.447-11.434-8.653-.88-17.463-.226-25.988-.226v49.546h11.898V394.14l1.23-.584c5.64 5.295 7.742 13.032 12.355 19.377 4.318 0 8.975 0 13.781-.803M711 400.501c-.392-.697-.664-1.506-1.195-2.072-3.296-3.515-2.818-5.93 1.088-9.112 4.702-3.83 4.927-9.665 3.581-15.316-1.34-5.628-4.86-10.202-10.532-10.753-8.512-.827-17.163-.215-25.645-.215v49.664h11.862v-18.533l1.298-.642c5.6 5.31 7.8 12.972 12.237 19.243h14.155c-2.216-4.122-4.262-7.925-6.85-12.264M122 368.6v44.098h12.143v-19.616c1.487 1.143 2.488 1.563 2.936 2.314 2.879 4.823 5.585 9.75 8.47 14.57.688 1.148 1.775 2.806 2.784 2.885 4.17.326 8.382.137 13.371.137-3.592-6.359-6.732-11.746-9.658-17.248-.528-.994-.696-3.21-.15-3.587 6.738-4.658 7.15-11.297 6.083-18.417-.81-5.406-5.93-10.525-11.132-10.675-8.114-.233-16.24-.061-24.847-.061zm309 23.9v20.213h12.174V394.29h14.005v18.417h11.538v-49.42h-11.89v18.423H442.82v-18.417H431zM274.97 413c3.66.054 1.524-2.114.97-3.083-4.383-7.668-8.906-15.257-13.395-22.865-1.085-1.838-1.767-3.157.067-5.457 4.549-5.703 8.462-11.913 12.649-17.945-10.182-2.577-17.506-.368-21.403 9.68-1.158 2.987-3.601 5.476-5.892 8.833v-18.966h-11.623v49.465h11.598c.347-6.254-1.65-12.988 5.527-16.804 1.439 2.533 3.118 4.778 4.071 7.299 2.94 7.776 7.864 11.878 17.432 9.842M1360 371.39v-8.06h-33.672v49.345h33.34V400.75h-21.334v-7.003h18.329V381.74h-18.323V375c6.325 0 12.31-.025 18.296.016 1.903.013 3.846.257 3.364-3.626M212 391.352v-9.621h-18.846v-6.842h21.498v-11.54h-33.305V413h33.3v-12.293h-21.482V394c5.273 0 10.397.098 15.512-.077 1.123-.039 2.213-1.05 3.323-2.57m780.214 19.628c4.366-2.13 7.244-5.655 7.693-10.387.696-7.34 1.348-14.779.89-22.105-.352-5.641-2.628-11.4-8.604-13.536-3.994-1.427-8.51-1.685-12.817-1.875-6.31-.278-13.117 4.204-14.174 10.406-1.203 7.06-.722 14.393-1.232 21.59-1.095 15.446 14.53 21.91 28.244 15.907M889.462 372.03c2.142-2.965 1.184-4.36-1.925-6.26-5.837-3.567-12.02-2.724-18.165-2.725-7.67 0-12.939 5.375-14.356 14.215-1.002 6.248 3.306 12.744 10.092 14.731 4.58 1.34 9.281 2.262 15.01 3.628-1.353 2.193-1.978 4.64-3.405 5.271-6.762 2.99-12.42-.503-18.511-4.285l-5.569 9.726c8.626 7.422 18.169 7.88 28.31 5.738 10.088-2.132 13.455-14.441 9.132-21.942-3.453-5.99-9.458-6.797-15.277-8.122-3.055-.696-7.873-.557-7.425-4.458.51-4.431 5.404-3.686 8.905-3.464 1.355.086 2.653 1.061 3.978 1.628 2.018.863 4.036 1.724 6.136 2.62 1.026-2.2 1.833-3.932 3.07-6.301m-577.138 29.128c-6.881 2.782-12.227-1.518-17.944-4.348l-5.632 9.504c6.801 6.449 14.953 6.98 23.419 6.72 8.386-.258 14.892-5.377 15.83-12.794 1.09-8.627-2.782-14.48-11.36-16.949-2.162-.622-4.522-.616-6.63-1.358-2.506-.883-4.837-2.26-7.47-3.533 4.183-5.8 10.179-5.225 15.933-2.118 2.351 1.27 4.11 3.362 5.565-.638 1.17-3.216 5.823-6.21-.002-9.71-6.388-3.837-13.285-3.026-20.082-2.847-5.055.134-11.5 6.463-11.95 10.988-1.056 10.582 1.306 15.659 8.686 17.877 3.681 1.106 7.556 1.556 11.273 2.561 1.434.388 2.673 1.492 4.002 2.27-.945 1.401-1.89 2.803-3.638 4.375m1070.387 8.815c6.401 4.007 13.583 3.4 20.52 2.884 5.857-.437 10.71-4.001 12.446-9.545 1.907-6.088 2.036-12.924-4.158-17.01-3.46-2.281-7.956-3.082-12.07-4.25-3.055-.867-6.897-.611-7.332-4.875-.245-2.396 5.297-4.173 9.33-2.95 2.12.642 4.067 1.842 6.136 2.683 1.272.518 2.627.835 3.87 1.22l4.697-9.492c-5.791-5.067-12.521-5.624-19.678-5.766-9.09-.18-16.041 5.57-16.383 14.623-.345 9.141 3.611 13.772 13.908 15.59 3.885.685 7.605 2.307 11.4 3.503l-.138 1.839c-1.273.857-2.456 1.913-3.834 2.538-5.72 2.595-10.619-.15-15.547-2.578-.98-.482-2.76-1.434-2.87-1.273-1.788 2.598-3.814 5.2-4.734 8.132-.298.95 2.428 2.848 4.437 4.727m-879.738-41.84-17.09 44.41c12.514 1.63 12.854 1.466 15.636-7.543 3.572 0 7.253.281 10.87-.08 3.454-.347 4.357 1.48 5.39 4.185.595 1.556 2.338 3.429 3.844 3.722 2.99.584 6.174.173 10.259.173l-19.275-50.598c-3.451 1.959-9.003-2.161-9.634 5.73m272.03 41.457c-5.407-14.393-10.85-28.772-16.192-43.189-1.128-3.044-3.202-3.525-6.14-3.501-2.744.023-3.832.92-4.765 3.532-3.503 9.802-7.41 19.46-11.103 29.195-2.12 5.593-4.12 11.232-6.365 17.373 4.118 0 7.28.155 10.41-.085 1.077-.082 2.947-1.107 2.98-1.775.341-6.852 5.043-6.38 9.742-6.158 2.314.11 4.637.019 6.88.019 2.858 9.045 2.894 9.062 15.664 7.598-.387-.79-.724-1.478-1.112-3.009m505.546-38.555c-2.79-8.898-3.938-9.49-14.451-7.45-.03.33-.168.696-.075.988 4.991 15.508 9.847 31.066 15.28 46.419.48 1.356 4.74 1.759 7.268 1.831 1.123.032 2.911-1.645 3.357-2.913 3.51-9.968 6.756-20.029 10.109-30.052 1.813-5.42 3.677-10.822 5.73-16.857-3.28 0-5.598.174-7.881-.04-3.658-.342-5.29.634-6.106 4.763-1.2 6.077-3.76 11.889-5.817 17.787-.205.588-.928 1.364-1.428 1.376-.499.013-1.308-.735-1.484-1.304-1.428-4.587-2.739-9.21-4.502-14.548M930.498 363h-18.22v49.717h11.889v-18.885h17.546v-10.999h-17.426v-8.003h21.423V363zm-296.975 0h-10.24v12.17h12.883v37.546h11.998v-37.882h11.552V363zm-87.866 0c-2.603-.39-4.024.276-3.714 3.362.277 2.754.058 5.557.058 8.718h13.08v37.679h12.003v-37.845h11.67V363zm648.405 37.265v-37.071h-11.857v49.601h33.594v-11.854c-7.142 0-14.094 0-21.737-.676m-805.798-25.204c.246 1.572.695 3.143.704 4.717.062 10.948.033 21.897.033 33.015h11.018V374.98h12.769v-11.766h-36.571v11.79c3.831 0 7.459 0 12.047.057m-285.01-.12 1.047-11.735H67.208v11.818h12.817v37.763H91.03v-37.791c4.013 0 7.638 0 12.223-.055m1142.055 38.054c.563-.606 1.614-1.209 1.617-1.818.09-15.946.071-31.892.071-47.948h-11.763V413c3.188 0 6.153 0 10.075-.004m-408.81-132.022c-1.255 1.896-2.49 3.806-3.772 5.683-.834 1.222-2.733 3.028-2.443 3.485 1.569 2.47 3.453 6.245 5.632 6.536 6.478.864 13.144.31 20.552.31-.889-10.448-1.306-20.302-2.792-29.992-.484-3.153-3.76-5.877-6.514-9.9-.244 7.23-1.325 12.28-5.838 16.281-1.977 1.753-2.967 4.62-4.825 7.597"/><path fill="#050708" d="M481 237c0 17.992.012 35.485-.007 52.977-.006 5.682-1.273 7.003-6.805 7.013q-23.74.043-47.48 0c-5.228-.01-6.64-1.445-6.7-6.616-.039-3.28-.008-6.56-.008-10.563-8.307 7.435-16.621 13.802-26.9 16.565-19.976 5.367-39.332 4.648-57.054-7.402-12.394-8.428-19.692-20.616-25.108-34.308-6.158-15.571-9.114-31.692-7.808-48.265 2.03-25.768 10.133-49.243 30.087-66.964 9.325-8.281 20.709-12.563 33.12-14.534 13.618-2.164 26.562-.35 38.995 5.173 5.047 2.242 9.693 5.388 14.668 8.205 0-16.75-.004-33.686.002-50.62.003-6.87 1.806-8.656 8.73-8.66 14.66-.005 29.321-.014 43.981.005 7.163.009 8.286 1.124 8.286 8.06.002 49.81.001 99.622.001 149.934m-107.972-51.296c-.988 1.649-2.133 3.225-2.938 4.959-5.99 12.894-6.461 25.973-2.188 39.589 5.794 18.465 25.36 24.699 40.057 16.269 7.55-4.33 12.886-9.73 12.215-19.723-.756-11.258-.138-22.606-.216-33.914-.01-1.565-.262-3.284-.948-4.66-3.314-6.644-16.794-14.06-24.203-13.177-8.183.975-15.783 3.445-21.78 10.657z"/><path fill="#efb71a" d="M874.959 257.885c1.089-9.784 2.221-19.562 3.243-29.353.353-3.39.43-6.808.61-9.846-4.958.456-9.599 1-14.255 1.273-3.566.21-4.525-1.62-4.6-5.218-.135-6.39-.662-12.86-1.953-19.105-.73-3.53-1.42-5.627 2.776-7.147 3.976-1.44 5.814-11.808 2.556-14.425-1.904-1.529-4.994-2.724-7.281-2.363-3.433.54-6.293 2.826-6.07 7.146.094 1.816.016 3.642.016 5.53l-7.379 2.972c-1.389-5.67-3.758-10.035-10.281-10.759-5.759-.639-11.88 4.217-12.43 10.015-.644 6.814-1.813 13.592-3.088 20.323-.276 1.458-1.969 2.65-3.367 4.416h3.378c.382 4.56.918 9.24 1.129 13.933.256 5.712 3.318 9.288 9.014 9.677 3.106.212 4.969.83 3.345 4.475-.365.821-.45 2.101-.065 2.872 5.091 10.225 4.063 16.765-3.751 24.737a361 361 0 0 0-13.981 15.078c-.792.906-1.143 3.126-.587 4.115 1.964 3.492 4.41 6.713 7.173 10.769h-5.417c-16.16 0-32.32-.092-48.48.06-4.408.042-6.277-1.42-6.272-6.032.084-67.64.074-135.279.011-202.918-.003-3.443 1.124-5.002 4.494-6.478 16.912-7.404 33.629-15.258 50.372-23.043 5.59-2.6 7.166-1.74 7.172 4.49.022 26.822.009 53.644.009 80.466v4.069c7.613-5.184 14.848-11.17 22.988-15.423 14.63-7.642 30.04-7.078 45.312-1.456 21.102 7.767 30.858 25.393 30.796 46.475-.074 24.924.741 49.85.836 74.777.05 13.428-.452 26.867-1.126 40.28-.082 1.644-2.743 4.474-4.277 4.52-12.28.373-24.578.209-37.094.209 3.566-4.295 3.286-6.556-.628-6.971-1.153-.122-2.33-.005-3.496-.032-.967-.023-1.932-.098-3.537-.184.308-3.54.588-6.756 1.301-10.63 1.25-7.538 2.067-14.416 2.884-21.294M1016 242c0-48.649-.024-96.797.085-144.945.004-2.015.692-4.922 2.076-5.783 1.341-.834 4.269-.08 6.024.862 14.553 7.814 28.837 16.147 43.545 23.652 6.681 3.41 9.758 7.412 9.46 15.283-.625 16.47-.19 32.98-.19 49.475v4.781l1.013.389c4.997-7.91 9.985-15.824 14.992-23.727 5.594-8.83 11.327-17.575 16.764-26.5 3.193-5.244 8.38-6.2 13.54-6.335 7.414-.194 14.848.666 22.279.81 8.493.165 16.993.005 25.49.05 6.095.031 8.081 3.438 4.616 8.542-6.424 9.462-13.117 18.745-19.807 28.024a4055 4055 0 0 1-26.865 36.859c-2.647 3.586-2.397 6.627.094 10.282 16.01 23.483 31.857 47.077 47.73 70.652.907 1.347 1.65 2.816 2.35 4.286 1.772 3.721 1.049 6.433-3.303 7.406-1.896.424-3.84.888-5.763.897-15.494.072-30.993-.194-46.48.155-6.21.14-9.782-2.826-12.77-7.56-10.368-16.433-20.794-32.829-31.169-49.258-.525-.831-.77-1.84-1.146-2.765l-1.565 1.137v46.748C1077 297 1077 297 1065.555 297c-13.662 0-27.324.01-40.985-.004-6.604-.007-8.516-1.818-8.547-8.514-.071-15.327-.023-30.655-.023-46.482"/><path fill="#050708" d="M681.88 296.403c-1.17-2.037-2.558-3.696-2.766-5.492-.394-3.412-.114-6.902-.114-10.003-8.062 4.911-15.68 10.825-24.256 14.52-19.41 8.363-39.176 9.194-57.736-2.545-11.406-7.215-16.956-18.477-19.092-31.737-1.92-11.919-.595-23.237 4.045-34.322 6.137-14.66 16.948-24.62 31.28-30.745 14.503-6.197 29.9-7.787 45.504-6.983 5.923.306 11.79 1.701 18.189 2.677-.692-5.601-3.5-10.284-7.95-13.053-8.68-5.4-18.233-8.304-28.66-5.79a8420 8420 0 0 0-41.68 10.179c-4.538 1.118-7.503-.501-7.567-4.99-.202-13.994-.234-27.997.124-41.985.045-1.744 2.61-4.622 4.37-4.935 13.24-2.354 26.517-4.777 39.89-6.01 10.249-.946 20.735-1.006 30.974-.01 18.384 1.788 36.637 5.095 51.46 17.361 10.026 8.296 16.219 19.374 18.99 32.061 1.313 6.013 1.987 12.28 2.024 18.438.195 31.991.092 63.985.09 95.978 0 6.993-.97 8.006-7.853 7.976-16.317-.072-32.634-.18-49.266-.59M632 240.614c-.471 6.45 2.458 11.184 8.042 13.86 17.764 8.51 37.28-6.362 38.944-23.895.34-3.573-1.02-5.657-4.996-5.607-7.653.096-15.368-.58-22.945.18-9.669.972-17.764 3.806-19.045 15.462M178.902 128c2.151 0 3.817-.011 5.483.003 3.774.032 5.613 1.976 5.614 5.718.002 4.596 0 9.192 0 13.663 4.78-4.058 9.274-8.132 14.04-11.86 8.066-6.314 17.303-9.345 27.519-10.69 13.63-1.793 25.682 1.713 36.537 9.285 11.302 7.881 19.092 18.426 19.863 32.823.557 10.399.951 20.818.996 31.23.13 29.986.049 59.973.044 89.96-.001 8.133-.756 8.868-8.98 8.868-14.66 0-29.321-.11-43.98.065-4.521.054-6.121-1.632-6.101-6.129.124-28.486.236-56.976-.083-85.46-.064-5.703-1.241-11.677-3.265-17.01-2.878-7.584-10.608-12.17-16.928-11.464-8.64.965-14.906 6.245-16.526 15.248-1.554 8.632-2.847 17.428-2.997 26.174-.403 23.649-.134 47.31-.14 70.965-.002 6.544-1.084 7.606-7.721 7.609-15.327.006-30.655-.123-45.978.076-4.748.062-6.38-1.641-6.37-6.378.112-52.142.125-104.286-.016-156.429-.013-4.974 2.286-6.282 6.523-6.275 13.993.021 27.987.008 42.466.008"/><path fill="#efb71a" d="M1176.27 166.351c10.826-18.243 25.209-31.432 46.002-36.438 22.681-5.46 45.145-6.04 66.623 4.599 17.72 8.777 26.882 23.55 29.211 43.114 1.483 12.458-1.235 23.61-8.018 33.932-5.158 7.847-12.698 12.823-21.131 16.333-16.134 6.714-33.153 7.84-50.375 7.066-3.058-.138-6.094-.789-9.752-1.286 2.805 8.761 9.326 12.407 16.317 15.233 10.776 4.355 21.85 3.756 32.767.589 8.125-2.358 15.953-5.8 24.14-7.859 7.392-1.859 11.22-1.679 11.008 7.61-.26 11.324-.158 22.659-.012 33.986.054 4.178-2.171 6.758-5.633 7.658-19.744 5.132-39.678 9.508-60.255 8.042-23.062-1.643-44.524-7.887-61.426-24.784-11.393-11.389-17.188-25.862-19.517-41.413-2.624-17.527-2.589-35.16 3.812-52.14 1.782-4.728 4.013-9.287 6.238-14.242m56.716 11.17c-6.006 6.234-8.04 13.625-6.582 22.471 9.305 0 18.475.358 27.603-.107 8.11-.413 14.833-7.314 14.954-14.297.115-6.701-5.897-13.759-12.833-15.631-9.132-2.466-16.311.784-23.142 7.563zm139.418 55.216c-8.496-4.623-16.962-8.584-24.73-13.622-10.419-6.758-16.216-16.6-17.821-29.204-1.289-10.12-1.223-19.952 1.544-29.781 4.83-17.164 17.277-25.9 33.582-30.078 14.682-3.762 29.543-4.082 44.45-1.103 10.386 2.076 20.81 3.966 31.179 6.128 3.947.823 6.432 3.46 6.355 7.657-.234 12.764-.46 25.533-1.044 38.283-.29 6.32-3.636 7.911-9.719 5.645-9.291-3.462-18.473-7.491-28.058-9.801-7.438-1.792-15.415-1.444-23.164-1.75-1.336-.053-2.731 1.375-5.528 2.897 3.493 2.652 5.83 5.141 8.702 6.484 12.867 6.014 26.024 11.417 38.818 17.576 18.072 8.701 27.571 23.008 27.052 43.48-.37 14.616-4.226 27.813-15.217 38.106-8.02 7.512-18.063 11.003-28.515 13.285-12.515 2.732-25.21 3.183-37.846 1.027-11.874-2.027-23.7-4.387-35.46-7.002-5.365-1.192-7.137-5.764-6.498-11.14.618-5.2.018-10.541.027-15.82.011-6.747-.51-13.57.329-20.216.777-6.153 4.313-7.09 10.27-4.85 10.796 4.061 21.631 8.145 32.722 11.248 5.907 1.653 12.378 1.549 18.604 1.64 1.823.027 4.83-1.707 5.2-3.165.397-1.562-1.189-4.697-2.756-5.506-7.217-3.725-14.73-6.878-22.478-10.418"/><path fill="#050708" d="M48 193V88.087C48.002 80.584 49.625 79 57.3 79h42.964c8.234 0 9.733 1.472 9.733 9.664.005 61.449.032 122.898-.04 184.347-.007 6.395-.712 12.785-.904 19.184-.12 4.023-2.349 4.862-5.843 4.843-16.153-.086-32.306-.019-48.46-.049-5.453-.01-6.742-1.38-6.744-7.069C47.994 257.78 48 225.64 48 193m471.3-53.014c14.88 3.314 27.982-.592 40.7-8.096v89.024c0 23.166.004 46.332-.003 69.498-.001 6.113-.464 6.582-6.514 6.585-15.666.009-31.337-.22-46.995.137-4.782.11-6.412-2.183-7.368-5.964-.239-.944-.116-1.985-.116-2.982q-.007-76.747.002-153.495c0-.807.09-1.615.143-2.516 6.68 2.642 13.199 5.219 20.15 7.809z"/><path fill="#efb71a" d="M938 216v-77.992c20.036 10.457 39.828 12.176 60-.222v6.66q.001 72.67-.001 145.34c0 6.26-.883 7.194-7.108 7.205q-22.974.044-45.95-.002c-5.59-.011-6.928-1.381-6.932-7.07-.02-24.473-.009-48.946-.009-73.919"/><path fill="#050708" d="M557.293 114.256c-8.304 12.386-20.202 16.685-33.788 14.495-12.583-2.029-22.389-10.47-25.541-24.025-3.97-17.07 4.531-33.168 22.012-38.162 19.395-5.541 40.964 6.414 42.93 28.688.593 6.72-1.214 13.16-5.613 19.004"/><path fill="#efb71a" d="M949.086 76.979c9.482-6.25 19.32-7.796 29.67-3.99 11.729 4.315 19.44 12.176 21.288 25.103 3.23 22.596-15.402 38.97-35.037 36.768-13.116-1.47-23.347-8.434-27.52-21.25-4.077-12.521-1.617-24.342 8.293-33.884a29 29 0 0 1 3.306-2.747"/><path fill="#050708" d="M1125 370.068v42.651h-10.777V393.5l-1.374-.35c-.962 3.337-2.069 6.64-2.848 10.02-.944 4.095-3.394 4.914-7.373 5.013-4.104.102-5.27-1.746-6.114-5.066-1.086-4.277-2.506-8.47-4.504-12.593v22.253h-10.786v-49.538h14.461l7.383 26.335c1.613-4.927 2.88-8.423 3.892-11.992 1.137-4.014 1.85-8.16 3.174-12.104.366-1.089 2.203-2.256 3.454-2.366 3.607-.316 7.259-.112 11.412-.112zm-305.988 17.036c.648 1.262 1.256 2.123 2.679 4.14V363.27h11.038v49.434h-13.512l-13.127-27.53v27.468h-11.734v-49.438h13.378c3.745 7.832 7.492 15.666 11.278 23.9m242.505 25.429c-4.731.401-9.388.401-13.706.401-4.613-6.345-6.716-14.082-12.355-19.377l-1.23.584v18.526h-11.898V363.12c8.525 0 17.335-.654 25.988.226 5.95.604 9.39 5.78 10.447 11.434 1.154 6.17.07 12.26-5.487 16.282-2.444 1.77-2.555 2.618-.786 5.196 3.44 5.013 6.112 10.552 9.027 16.274M1034 377.547l.23 4.453c2.784 0 5.243-.138 7.68.038 2.492.18 4.628-.113 5.022-3.022.412-3.04-1.947-4.185-4.225-4.655-2.373-.489-4.906-.405-7.342-.22-.514.04-.913 1.602-1.365 3.406m-322.729 23.221c2.316 4.072 4.362 7.875 6.578 11.997h-14.155c-4.437-6.27-6.637-13.933-12.237-19.243l-1.298.642v18.533h-11.862v-49.664c8.482 0 17.133-.612 25.645.215 5.671.551 9.191 5.125 10.532 10.753 1.346 5.65 1.12 11.486-3.581 15.316-3.906 3.182-4.384 5.597-1.088 9.112.53.566.803 1.375 1.466 2.34m-10.347-18.789c.369-1.9 1.305-5.36 1.02-5.463-3.75-1.365-7.672-2.256-11.613-3.283V382c3.453 0 6.576 0 10.593-.019zM122 368.112v-5.111c8.608 0 16.733-.172 24.847.061 5.201.15 10.321 5.27 11.132 10.675 1.067 7.12.655 13.76-6.082 18.417-.547.377-.38 2.593.15 3.587 2.925 5.502 6.065 10.89 9.657 17.248-4.99 0-9.2.19-13.37-.137-1.01-.08-2.097-1.737-2.785-2.886-2.885-4.82-5.591-9.746-8.47-14.57-.448-.75-1.449-1.17-2.936-2.313v19.616H122zm22.821 13.588c.172-1.955.91-5.44.424-5.619-3.466-1.282-7.18-1.89-10.96-2.746v8.644c3.416 0 6.55 0 10.536-.28zM431 392v-28.707h11.82v18.417h14.006v-18.423h11.89v49.42H457.18V394.29h-14.005v18.423H431zm-156.472 21c-9.125 2.035-14.05-2.067-16.989-9.843-.953-2.52-2.632-4.766-4.071-7.3-7.176 3.817-5.18 10.55-5.527 16.805h-11.598v-49.465h11.623v18.966c2.29-3.357 4.734-5.846 5.892-8.834 3.897-10.047 11.221-12.256 21.403-9.68-4.187 6.033-8.1 12.243-12.649 17.946-1.834 2.3-1.152 3.619-.067 5.457 4.49 7.608 9.012 15.197 13.395 22.865.554.969 2.69 3.137-1.412 3.083M1360 371.87c.482 3.402-1.461 3.158-3.364 3.145-5.986-.041-11.971-.015-18.296-.015v6.74h18.323v12.007h-18.33v7.003h21.335v11.924h-33.34V363.33H1360v8.542zM211.998 391.83c-1.108 1.042-2.198 2.054-3.321 2.093-5.115.175-10.239.077-15.512.077v6.707h21.482V413h-33.3v-49.652h33.305v11.541h-21.498v6.842H212c0 3.452 0 6.537-.002 10.1zm779.82 19.205c-13.318 5.948-28.943-.515-27.848-15.962.51-7.196.03-14.529 1.232-21.59 1.057-6.2 7.863-10.683 14.174-10.405 4.308.19 8.823.448 12.817 1.875 5.976 2.136 8.252 7.895 8.604 13.536.458 7.326-.194 14.764-.89 22.105-.45 4.732-3.327 8.256-8.089 10.441M989 388.467c-.305-3.048-.715-6.09-.89-9.146-.242-4.247-3.87-5.288-6.485-4.973-2.85.343-5.923 2.273-5.684 6.513.26 4.625.136 9.277.034 13.914-.077 3.517 1.64 5.706 4.925 6.14 3.296.437 6.853.564 7.21-4.346.175-2.395.586-4.773.89-8.102m-99.753-16.119c-1.022 2.05-1.83 3.783-2.855 5.983-2.1-.896-4.118-1.757-6.136-2.62-1.325-.567-2.623-1.542-3.978-1.628-3.5-.222-8.395-.967-8.905 3.464-.448 3.901 4.37 3.762 7.425 4.458 5.819 1.325 11.824 2.132 15.277 8.122 4.323 7.5.956 19.81-9.131 21.942-10.142 2.143-19.685 1.684-28.31-5.738l5.568-9.726c6.091 3.782 11.75 7.275 18.51 4.285 1.428-.631 2.053-3.078 3.406-5.27-5.729-1.367-10.43-2.288-15.01-3.629-6.786-1.987-11.094-8.483-10.092-14.731 1.417-8.84 6.687-14.216 14.356-14.215 6.146 0 12.328-.842 18.165 2.725 3.11 1.9 4.067 3.295 1.71 6.578m-576.522 28.725c1.346-1.487 2.292-2.889 3.237-4.29-1.329-.778-2.568-1.882-4.002-2.27-3.717-1.005-7.592-1.455-11.273-2.561-7.38-2.218-9.742-7.295-8.686-17.877.45-4.525 6.895-10.854 11.95-10.988 6.797-.179 13.694-.99 20.082 2.847 5.825 3.5 1.172 6.494.002 9.71-1.455 4-3.214 1.907-5.565.638-5.754-3.107-11.75-3.682-15.933 2.118 2.633 1.272 4.964 2.65 7.47 3.533 2.108.742 4.468.736 6.63 1.358 8.578 2.469 12.45 8.322 11.36 16.949-.938 7.417-7.444 12.536-15.83 12.794-8.466.26-16.618-.271-23.419-6.72l5.632-9.504c5.717 2.83 11.063 7.13 18.345 4.263m1069.653 8.693c-1.676-1.672-4.402-3.57-4.104-4.52.92-2.932 2.946-5.534 4.735-8.132.11-.16 1.89.791 2.87 1.273 4.927 2.429 9.827 5.173 15.546 2.578 1.378-.625 2.561-1.68 3.834-2.538l.138-1.84c-3.795-1.195-7.515-2.817-11.4-3.503-10.297-1.817-14.253-6.448-13.908-15.589.342-9.052 7.293-14.802 16.383-14.623 7.157.142 13.887.699 19.678 5.766l-4.697 9.491c-1.243-.384-2.598-.7-3.87-1.219-2.069-.841-4.015-2.041-6.136-2.684-4.033-1.222-9.575.555-9.33 2.951.435 4.264 4.277 4.008 7.332 4.875 4.114 1.168 8.61 1.969 12.07 4.25 6.194 4.086 6.065 10.922 4.158 17.01-1.736 5.544-6.589 9.108-12.447 9.545-6.936.516-14.118 1.123-20.852-3.091M502.985 367.71c.619-7.47 6.17-3.35 9.622-5.308L531.882 413c-4.085 0-7.27.41-10.26-.173-1.505-.293-3.248-2.166-3.842-3.722-1.034-2.705-1.937-4.532-5.391-4.186-3.617.362-7.298.081-10.87.081-2.782 9.009-3.122 9.173-15.635 7.542 5.714-14.85 11.401-29.63 17.101-44.832M509.38 394l2.817-.205-3.506-9.31c-.99 2.826-1.605 4.794-2.367 6.704-.917 2.297-.011 3.03 3.056 2.81zm265.647 16.01c.363 1.11.7 1.798 1.087 2.588-12.77 1.464-12.806 1.447-15.665-7.598-2.242 0-4.565.09-6.879-.019-4.699-.223-9.4-.694-9.742 6.158-.033.668-1.903 1.693-2.98 1.775-3.13.24-6.292.085-10.41.085 2.245-6.141 4.244-11.78 6.365-17.373 3.693-9.736 7.6-19.393 11.103-29.195.933-2.612 2.021-3.51 4.764-3.532 2.939-.024 5.013.457 6.14 3.501 5.344 14.417 10.786 28.796 16.217 43.61m-22.66-22.902-2.517 6.633h7.091c-1.561-2.793-2.776-4.966-4.574-6.633m528.39-15.712c1.554 4.975 2.865 9.6 4.293 14.186.176.569.985 1.317 1.484 1.304.5-.012 1.223-.788 1.428-1.376 2.057-5.898 4.617-11.71 5.817-17.787.815-4.129 2.448-5.105 6.106-4.763 2.283.214 4.602.04 7.881.04-2.053 6.035-3.917 11.438-5.73 16.857-3.353 10.023-6.599 20.084-10.109 30.052-.446 1.268-2.234 2.945-3.357 2.913-2.527-.072-6.788-.475-7.268-1.831-5.433-15.353-10.289-30.91-15.28-46.42-.093-.29.045-.656.078-.987 10.51-2.04 11.657-1.448 14.657 7.812M930.996 363h14.714v11.83h-21.423v8.003h17.426v10.999h-17.546v18.885h-11.888V363zm-296.976 0h25.695v11.834h-11.552v37.882h-11.998V375.17h-12.883V363h10.737zm-87.88 0h32.614v11.914h-11.671v37.845h-12.004v-37.68H542c0-3.16.219-5.963-.058-8.717-.31-3.086 1.111-3.752 4.199-3.362zm648.266 37.603c7.298.338 14.25.338 21.392.338v11.854h-33.594v-49.601h11.857c0 12.264 0 24.668.345 37.41zm-806.624-25.57c-4.107-.028-7.735-.028-11.566-.028v-11.791h36.57v11.766h-12.768v37.813H389c0-11.118.03-22.067-.033-33.015-.009-1.574-.458-3.145-1.185-4.745m-285.008-.065c-4.106.028-7.731.028-11.744.028v37.79H80.025v-37.762H67.208v-11.818H104.3c-.362 4.054-.704 7.895-1.526 11.762m1142.056 38.03c-3.444.002-6.409.002-9.597.002v-49.77h11.763c0 16.055.019 32.001-.07 47.947-.004.61-1.055 1.212-2.096 1.82z"/><path fill="#efb71a" d="M836.708 280.664c1.648-2.669 2.638-5.535 4.615-7.288 4.513-4 5.594-9.05 5.838-16.281 2.754 4.023 6.03 6.747 6.514 9.9 1.486 9.69 1.903 19.544 2.792 29.992-7.408 0-14.074.554-20.552-.31-2.18-.29-4.063-4.067-5.632-6.536-.29-.457 1.61-2.263 2.443-3.485 1.282-1.877 2.517-3.787 3.982-5.992m37.84-22.759c-.406 6.858-1.223 13.736-2.344 20.882-1.09.376-1.873.485-3.091.655-.038-.591-.167-1.183-.097-1.75 1.439-11.686-1.706-22.39-7.013-32.614-1.785-3.439-3.762-6.778-5.575-10.203-1.924-3.635-.016-8.056 3.979-8.511 5.208-.594 10.477-.659 16.281-.982-1.212 9.318-2.507 18.749-3.594 28.204-.16 1.388.671 2.89 1.454 4.32z"/><path fill="#fff" d="M373.22 185.387c5.804-6.895 13.404-9.365 21.587-10.34 7.409-.883 20.889 6.533 24.203 13.177.686 1.376.938 3.095.948 4.66.078 11.308-.54 22.656.216 33.914.67 9.992-4.665 15.393-12.215 19.723-14.698 8.43-34.263 2.196-40.057-16.27-4.273-13.615-3.802-26.694 2.188-39.588.805-1.734 1.95-3.31 3.13-5.276M632 240.182c1.281-11.224 9.376-14.058 19.045-15.03 7.577-.76 15.292-.084 22.945-.18 3.977-.05 5.335 2.034 4.996 5.607-1.663 17.533-21.18 32.405-38.944 23.895-5.584-2.676-8.513-7.41-8.042-14.292m601.238-62.919c6.578-6.522 13.757-9.772 22.89-7.306 6.935 1.872 12.947 8.93 12.832 15.631-.12 6.983-6.844 13.884-14.954 14.297-9.128.465-18.298.107-27.603.107-1.458-8.846.576-16.237 6.835-22.729M1034 377.075c.452-1.332.85-2.895 1.365-2.934 2.436-.185 4.969-.269 7.342.22 2.278.47 4.637 1.615 4.225 4.655-.394 2.909-2.53 3.203-5.022 3.022-2.437-.176-4.896-.038-7.68-.038-.084-1.62-.157-3.037-.23-4.925m-333.523 4.915c-3.57.009-6.693.009-10.146.009v-8.765c3.941 1.027 7.863 1.918 11.613 3.283.285.104-.651 3.564-1.467 5.473m-556.083-.15c-3.56.139-6.693.139-10.11.139v-8.644c3.78.855 7.495 1.464 10.96 2.746.486.18-.251 3.664-.85 5.758zM989 388.939c-.304 2.857-.715 5.235-.89 7.63-.357 4.91-3.914 4.783-7.21 4.347-3.286-.435-5.002-2.624-4.925-6.14.102-4.638.227-9.29-.034-13.915-.24-4.24 2.833-6.17 5.684-6.513 2.614-.315 6.243.726 6.486 4.973.174 3.055.584 6.098.889 9.618M508.951 394c-2.638.219-3.544-.514-2.627-2.811.762-1.91 1.377-3.878 2.367-6.704l3.506 9.31c-1.2.087-2.008.146-3.246.205m243.708-7.145c1.506 1.92 2.72 4.093 4.282 6.886h-7.091c.881-2.322 1.7-4.477 2.809-6.886"/></svg>